<mxfile host="Electron" modified="2024-08-27T15:57:03.855Z" agent="Mozilla/5.0 (Macintosh; Intel Mac OS X 10_15_7) AppleWebKit/537.36 (KHTML, like Gecko) draw.io/24.1.0 Chrome/120.0.6099.109 Electron/28.1.0 Safari/537.36" etag="zim_9jsGf0M60yua1dK9" version="24.1.0" type="device">
  <diagram id="HAS4cLOws-33qhvRDgXg" name="第 1 页">
    <mxGraphModel dx="1305" dy="674" grid="1" gridSize="10" guides="1" tooltips="1" connect="1" arrows="1" fold="1" page="0" pageScale="1" pageWidth="827" pageHeight="1169" math="0" shadow="0">
      <root>
        <mxCell id="0" />
        <mxCell id="1" parent="0" />
        <mxCell id="L4ZTs_5oZjE86EF3qEke-1" value="&lt;div style=&quot;font-family: Menlo, Monaco, &amp;quot;Courier New&amp;quot;, monospace; font-size: 11px; line-height: 21px; white-space: pre;&quot;&gt;executionJobVertex !=null&lt;/div&gt;" style="rounded=1;whiteSpace=wrap;html=1;fontColor=default;labelBackgroundColor=none;fontSize=11;" vertex="1" parent="1">
          <mxGeometry x="270" y="180" width="220" height="50" as="geometry" />
        </mxCell>
        <mxCell id="L4ZTs_5oZjE86EF3qEke-2" value="&lt;div style=&quot;font-family: Menlo, Monaco, &amp;quot;Courier New&amp;quot;, monospace; font-size: 11px; line-height: 21px; white-space: pre;&quot;&gt;&lt;div style=&quot;line-height: 21px; font-size: 11px;&quot;&gt;allowNonRestoredState&lt;/div&gt;&lt;/div&gt;" style="rounded=1;whiteSpace=wrap;html=1;fontColor=default;labelBackgroundColor=none;fontSize=11;" vertex="1" parent="1">
          <mxGeometry x="270" y="282.5" width="220" height="50" as="geometry" />
        </mxCell>
        <mxCell id="L4ZTs_5oZjE86EF3qEke-3" value="&lt;div style=&quot;font-family: Menlo, Monaco, &amp;quot;Courier New&amp;quot;, monospace; font-size: 11px; line-height: 21px; white-space: pre;&quot;&gt;&lt;div style=&quot;line-height: 21px; font-size: 11px;&quot;&gt;报异常信息&lt;/div&gt;&lt;/div&gt;" style="rounded=1;whiteSpace=wrap;html=1;labelBackgroundColor=none;fontSize=11;fillColor=#d5e8d4;strokeColor=#82b366;" vertex="1" parent="1">
          <mxGeometry x="270" y="380" width="220" height="50" as="geometry" />
        </mxCell>
        <mxCell id="L4ZTs_5oZjE86EF3qEke-5" style="edgeStyle=orthogonalEdgeStyle;rounded=0;orthogonalLoop=1;jettySize=auto;html=1;dashed=1;fillColor=#dae8fc;strokeColor=#6c8ebf;" edge="1" parent="1" source="L4ZTs_5oZjE86EF3qEke-4">
          <mxGeometry relative="1" as="geometry">
            <mxPoint x="260" y="308" as="targetPoint" />
          </mxGeometry>
        </mxCell>
        <mxCell id="L4ZTs_5oZjE86EF3qEke-6" style="edgeStyle=orthogonalEdgeStyle;rounded=0;orthogonalLoop=1;jettySize=auto;html=1;entryX=0;entryY=0.5;entryDx=0;entryDy=0;fillColor=#d5e8d4;strokeColor=#82b366;" edge="1" parent="1" source="L4ZTs_5oZjE86EF3qEke-4" target="L4ZTs_5oZjE86EF3qEke-3">
          <mxGeometry relative="1" as="geometry" />
        </mxCell>
        <mxCell id="L4ZTs_5oZjE86EF3qEke-7" style="edgeStyle=orthogonalEdgeStyle;rounded=0;orthogonalLoop=1;jettySize=auto;html=1;entryX=0;entryY=0.5;entryDx=0;entryDy=0;dashed=1;fillColor=#dae8fc;strokeColor=#6c8ebf;" edge="1" parent="1" source="L4ZTs_5oZjE86EF3qEke-4" target="L4ZTs_5oZjE86EF3qEke-1">
          <mxGeometry relative="1" as="geometry" />
        </mxCell>
        <mxCell id="L4ZTs_5oZjE86EF3qEke-4" value="&lt;div style=&quot;font-family: Menlo, Monaco, &amp;quot;Courier New&amp;quot;, monospace; font-size: 11px; line-height: 21px; white-space: pre;&quot;&gt;&lt;span style=&quot;font-size: 11px;&quot;&gt;Checkpoints#loadAndValidateCheckpoint()&lt;/span&gt;&lt;/div&gt;" style="rounded=1;whiteSpace=wrap;html=1;labelBackgroundColor=none;fontSize=11;fillColor=#ffe6cc;strokeColor=#d79b00;" vertex="1" parent="1">
          <mxGeometry x="-150" y="286.25" width="280" height="42.5" as="geometry" />
        </mxCell>
      </root>
    </mxGraphModel>
  </diagram>
</mxfile>
